<svg width="163" height="263" xmlns="http://www.w3.org/2000/svg" preserveAspectRatio="xMidYMid meet" version="1.0">

 <g>
  <title>Layer 1</title>
  <g id="svg_1" fill="#18003C" transform="translate(0.000000,263.000000) scale(0.100000,-0.100000)">
   <path fill="#18003C" id="svg_2" d="m919,2456c-2,-2 -17,-7 -34,-9c-65,-12 -82,-18 -134,-44c-92,-48 -147,-114 -192,-230c-20,-52 -22,-68 -28,-263l-6,-195l-112,-3l-113,-3l0,-190l0,-190l115,3l115,3l0,-577l0,-578l220,0l220,0l0,575l0,575l165,0c150,0 165,2 166,18c0,9 2,31 4,47c1,17 6,59 9,95c4,36 9,85 12,110c3,25 6,60 8,78l3,32l-183,0l-184,0l0,133c0,152 9,194 46,222c33,24 16,22 184,24l140,1l0,180l0,180l-194,0c-107,0 -201,2 -208,5c-8,3 -16,4 -19,1z"/>
  </g>
 </g>
</svg>