<?xml version="1.0" standalone="no"?>
<!DOCTYPE svg PUBLIC "-//W3C//DTD SVG 20010904//EN"
 "http://www.w3.org/TR/2001/REC-SVG-20010904/DTD/svg10.dtd">
<svg version="1.0" xmlns="http://www.w3.org/2000/svg"
 width="380.000000pt" height="353.000000pt" viewBox="0 0 380.000000 353.000000"
 preserveAspectRatio="xMidYMid meet">

<g transform="translate(0.000000,353.000000) scale(0.100000,-0.100000)"
fill="#18003C" stroke="none">
<path d="M1758 3435 c-2 -2 -30 -6 -63 -9 -227 -22 -425 -75 -623 -167 -46
-22 -86 -39 -89 -39 -3 0 -49 -27 -102 -60 -53 -34 -105 -66 -116 -73 -103
-63 -284 -234 -385 -363 -49 -63 -100 -134 -100 -140 0 -4 -6 -15 -14 -23 -16
-19 -116 -212 -135 -261 -32 -84 -83 -271 -97 -359 -23 -141 -22 -413 1 -531
3 -14 7 -34 9 -45 36 -180 133 -433 207 -537 11 -14 19 -29 19 -32 0 -6 69
-106 80 -116 3 -3 18 -23 35 -45 87 -117 256 -273 395 -365 12 -8 28 -21 36
-28 7 -6 16 -12 19 -12 4 0 19 -8 33 -19 35 -24 188 -101 279 -140 129 -56
240 -65 263 -21 12 23 22 256 14 328 -5 44 -9 52 -23 47 -9 -4 -66 -9 -128
-12 -257 -13 -400 50 -477 210 -49 102 -135 217 -186 247 -54 32 -100 75 -100
94 0 38 92 48 179 19 28 -9 51 -20 51 -25 0 -4 6 -8 13 -8 16 0 104 -91 147
-152 38 -55 94 -102 164 -137 44 -23 64 -26 146 -26 151 0 230 24 230 69 0 41
29 108 66 153 20 24 35 46 33 47 -2 2 -24 7 -49 10 -25 3 -56 8 -70 11 -14 3
-41 8 -60 11 -64 11 -222 65 -282 98 -74 40 -158 107 -203 162 -58 70 -120
193 -140 274 -1 3 -5 16 -8 30 -16 59 -19 92 -24 217 -5 137 9 243 42 307 8
15 15 32 15 37 0 14 71 122 102 155 25 27 27 34 18 59 -32 85 -33 250 -1 354
12 39 26 73 33 77 17 11 95 5 162 -12 81 -20 194 -64 207 -81 6 -7 16 -13 22
-13 5 0 32 -13 59 -30 58 -36 72 -36 208 -8 144 30 476 32 620 4 162 -31 184
-32 227 -5 134 84 246 129 370 149 86 14 102 1 129 -105 24 -95 24 -245 0
-315 -15 -43 -15 -43 17 -81 48 -56 97 -141 125 -217 40 -110 39 -352 -2 -517
-22 -90 -81 -209 -131 -263 -14 -15 -25 -30 -25 -34 0 -13 -134 -115 -190
-146 -30 -16 -100 -43 -155 -60 -96 -30 -119 -36 -195 -48 -65 -11 -75 -12
-99 -13 l-25 -1 25 -27 c47 -51 86 -134 93 -200 2 -15 4 -160 5 -321 l1 -293
26 -26 c24 -24 30 -25 88 -20 73 7 157 39 314 119 133 68 138 72 265 164 157
115 294 256 420 432 20 28 37 56 37 61 0 4 9 20 20 33 19 25 73 128 103 198
92 214 136 444 131 683 -2 72 -5 146 -8 162 -15 107 -20 137 -36 200 -47 183
-91 289 -211 495 -92 159 -348 427 -494 517 -11 7 -63 39 -116 73 -53 33 -99
60 -103 60 -3 0 -43 18 -89 39 -147 71 -368 136 -522 156 -22 3 -58 7 -80 10
-41 6 -342 14 -347 10z"/>
</g>
</svg>
