<svg width="600" height="600" xmlns="http://www.w3.org/2000/svg" preserveAspectRatio="xMidYMid meet" version="1.0">

 <g>
  <title>Layer 1</title>
  <g id="svg_1" fill="#000000" transform="translate(0 600) scale(0.1 -0.1)">
   <path fill="#18003C" id="svg_2" d="m1545,5604c-123,-22 -259,-68 -380,-127c-403,-199 -697,-593 -769,-1032c-15,-90 -17,-222 -14,-1300c3,-1089 5,-1206 21,-1270c70,-288 192,-511 387,-705c164,-164 342,-275 553,-345c224,-74 135,-70 1472,-70l1200,0l105,23c283,63 505,185 711,391c206,206 328,428 391,711l23,105l0,1200c0,1330 4,1248 -66,1465c-136,419 -483,767 -904,904c-196,64 -102,60 -1435,62c-1020,2 -1228,0 -1295,-12zm2547,-386c390,-107 664,-391 761,-787c20,-84 20,-113 24,-1135c3,-655 0,-1100 -6,-1185c-12,-167 -42,-278 -111,-417c-142,-285 -401,-480 -730,-551c-79,-17 -159,-18 -1210,-18c-907,0 -1140,3 -1200,14c-229,41 -424,145 -581,308c-121,126 -207,280 -257,461l-27,97l0,1180l0,1180l24,89c113,431 453,733 886,789c17,3 548,4 1180,3l1150,-1l97,-27z"/>
   <path fill="#18003C" id="svg_3" d="m4215,4846c-61,-37 -88,-93 -83,-171c5,-77 39,-128 106,-157c154,-69 313,90 244,244c-30,69 -80,102 -161,106c-56,2 -72,-1 -106,-22z"/>
   <path fill="#18003C" id="svg_4" d="m2635,4489c-277,-36 -547,-172 -752,-381c-129,-131 -210,-250 -278,-408c-301,-703 69,-1514 803,-1760c129,-43 244,-60 409,-60c361,0 661,125 919,384c197,196 308,403 363,673c26,125 28,348 6,476c-71,406 -340,765 -714,952c-221,110 -501,156 -756,124zm373,-385c277,-57 522,-249 647,-509c70,-144 89,-232 89,-410c-1,-122 -5,-165 -22,-230c-91,-332 -345,-587 -677,-676c-116,-32 -334,-32 -458,-1c-170,42 -333,137 -451,262c-82,87 -118,141 -171,253c-64,137 -76,190 -82,367c-4,143 -2,163 21,254c87,338 342,594 677,681c116,30 306,34 427,9z"/>
  </g>
 </g>
</svg>